<svg xmlns="http://www.w3.org/2000/svg" viewBox="0 0 64 64">
  <rect width="64" height="64" rx="14" fill="#0a0a0a"/>
  <rect x="3" y="3" width="58" height="58" rx="12" fill="none" stroke="#10b981" stroke-width="1.5" opacity="0.35"/>
  <!-- gabinete do fliperama -->
  <path d="M20 14 Q20 10 24 10 L40 10 Q44 10 44 14 L46 52 Q46 56 42 56 L22 56 Q18 56 18 52 Z" fill="#18181b" stroke="#10b981" stroke-width="2"/>
  <!-- marquee aceso -->
  <rect x="22.5" y="13.5" width="19" height="6" rx="2" fill="#10b981"/>
  <!-- tela -->
  <rect x="22.5" y="23" width="19" height="15" rx="2" fill="#06281f" stroke="#10b981" stroke-width="1"/>
  <!-- space invader -->
  <g fill="#34d399">
    <rect x="29" y="27.5" width="2" height="2"/><rect x="33" y="27.5" width="2" height="2"/>
    <rect x="27" y="29.5" width="10" height="2"/>
    <rect x="29" y="31.5" width="2" height="2"/><rect x="33" y="31.5" width="2" height="2"/>
    <rect x="26" y="33.5" width="2" height="2"/><rect x="36" y="33.5" width="2" height="2"/>
  </g>
  <!-- painel de controle -->
  <rect x="21" y="41" width="22" height="7" rx="2" fill="#27272a"/>
  <circle cx="27" cy="44.5" r="2" fill="#ef4444"/>
  <circle cx="32" cy="44.5" r="2" fill="#eab308"/>
  <circle cx="37" cy="44.5" r="2" fill="#3b82f6"/>
</svg>
